<?xml version="1.0" standalone="no"?>
<!DOCTYPE svg PUBLIC "-//W3C//DTD SVG 20010904//EN"
 "http://www.w3.org/TR/2001/REC-SVG-20010904/DTD/svg10.dtd">
<svg version="1.0" xmlns="http://www.w3.org/2000/svg"
 width="518.000000pt" height="120.000000pt" viewBox="0 0 518.000000 120.000000"
 preserveAspectRatio="xMidYMid meet">

<g transform="translate(0.000000,120.000000) scale(0.100000,-0.100000)"
fill="#000000" stroke="none">
<path d="M1925 858 c-2 -7 -27 -121 -54 -253 -28 -132 -53 -250 -56 -262 -5
-22 -3 -23 79 -23 72 0 85 3 90 18 3 9 28 125 56 257 28 132 53 248 56 258 5
15 -3 17 -81 17 -59 0 -87 -4 -90 -12z"/>
<path d="M1416 590 c-64 -137 -116 -254 -116 -260 0 -5 17 -10 38 -10 37 0 38
1 66 65 l28 65 73 0 73 0 7 -65 7 -65 94 0 94 0 0 35 c0 31 -31 330 -46 443
l-5 42 -98 0 -99 0 -116 -250z m149 28 l7 -98 -51 0 c-28 0 -51 3 -51 6 0 8
83 194 86 191 1 -1 5 -46 9 -99z"/>
<path d="M3100 832 c0 -4 -22 -112 -50 -241 -27 -129 -50 -242 -50 -252 0 -18
11 -19 169 -19 166 0 169 0 175 23 12 46 10 47 -75 47 -79 0 -81 1 -76 23 3
12 11 50 18 84 l11 62 72 3 c69 3 71 4 74 31 l3 27 -65 0 c-36 0 -66 4 -66 9
0 5 7 41 16 80 l16 71 84 0 c66 0 84 3 84 14 0 8 3 21 6 30 5 14 -13 16 -170
16 -97 0 -176 -3 -176 -8z"/>
<path d="M4915 750 c-21 -22 -59 -48 -84 -57 -50 -18 -61 -28 -61 -55 0 -13 8
-18 30 -18 26 0 30 -3 25 -22 -3 -13 -12 -52 -20 -88 -35 -156 -15 -190 115
-190 62 0 79 3 84 16 11 29 6 42 -19 48 -30 8 -30 18 -10 118 26 126 22 118
60 118 32 0 35 2 35 30 0 26 -3 30 -29 30 -28 0 -29 1 -20 38 15 66 13 72 -29
72 -31 0 -45 -7 -77 -40z"/>
<path d="M2197 676 c-72 -26 -109 -81 -126 -184 -17 -104 11 -159 86 -169 28
-3 51 2 86 20 35 18 47 21 43 10 -3 -8 -6 -23 -6 -34 0 -11 -11 -31 -25 -44
-21 -22 -33 -25 -100 -25 -58 0 -75 -3 -75 -14 0 -8 -3 -22 -6 -31 -6 -16 4
-17 117 -14 114 4 128 6 171 31 25 15 55 43 67 61 18 29 91 334 91 380 0 14
-10 17 -64 17 -57 0 -65 -3 -80 -25 l-17 -26 -30 26 c-17 14 -36 25 -42 25 -7
0 -21 2 -32 5 -11 3 -37 -2 -58 -9z m128 -86 c4 -6 1 -42 -6 -81 -10 -55 -18
-75 -38 -90 -24 -19 -26 -19 -38 -3 -27 36 18 184 56 184 11 0 23 -5 26 -10z"/>
<path d="M2719 680 c-57 -10 -96 -30 -131 -67 -36 -38 -48 -73 -48 -141 0
-111 52 -152 192 -152 98 0 147 19 195 73 37 42 47 85 41 162 -5 58 -23 87
-68 110 -34 17 -125 25 -181 15z m78 -140 c-6 -91 -31 -153 -63 -158 -29 -4
-36 28 -24 104 6 32 10 61 10 64 0 21 43 70 61 70 21 0 22 -3 16 -80z"/>
<path d="M4019 680 c-52 -9 -116 -39 -141 -67 -51 -56 -64 -167 -25 -224 38
-57 77 -71 192 -66 120 4 151 17 165 66 17 60 16 61 -55 61 -53 0 -66 -3 -75
-19 -16 -31 -40 -51 -61 -51 -16 0 -19 7 -19 55 l0 55 115 0 c108 0 115 1 126
22 16 31 16 103 -1 123 -33 40 -132 60 -221 45z m81 -105 l0 -45 -45 0 c-43 0
-44 1 -35 24 17 46 35 66 57 66 21 0 23 -5 23 -45z"/>
<path d="M4581 680 c-18 -4 -47 -18 -63 -30 -16 -12 -31 -20 -32 -18 -2 1 -9
13 -15 26 -10 19 -19 22 -75 22 -58 0 -64 -2 -69 -22 -16 -61 -67 -311 -67
-324 0 -12 14 -14 83 -12 l82 3 28 124 c15 68 32 130 38 138 13 15 45 17 54 4
3 -5 -6 -63 -20 -128 -14 -65 -25 -124 -25 -130 0 -10 23 -13 83 -13 l84 0 27
133 c15 72 26 145 24 161 -6 51 -70 82 -137 66z"/>
<path d="M3434 653 c3 -16 15 -89 26 -163 30 -190 17 -171 116 -168 l85 3 90
168 c49 92 89 172 89 177 0 6 -18 10 -40 10 l-40 0 -59 -117 c-66 -132 -60
-135 -81 30 l-12 87 -90 0 -90 0 6 -27z"/>
</g>
</svg>
