<?xml version="1.0" standalone="no"?>
<!DOCTYPE svg PUBLIC "-//W3C//DTD SVG 20010904//EN"
 "http://www.w3.org/TR/2001/REC-SVG-20010904/DTD/svg10.dtd">
<svg version="1.0" xmlns="http://www.w3.org/2000/svg"
 width="300.000000pt" height="225.000000pt" viewBox="0 0 300.000000 225.000000"
 preserveAspectRatio="xMidYMid meet">
<metadata>
Created by potrace 1.10, written by Peter Selinger 2001-2011
</metadata>
<g transform="translate(0.000000,225.000000) scale(0.100000,-0.100000)"
fill="#000000" stroke="none">
<path d="M683 1348 c-6 -7 -18 -47 -28 -88 -44 -200 -44 -210 0 -210 17 0 29
8 36 24 13 28 44 25 52 -5 5 -17 15 -19 99 -19 53 0 99 5 105 11 7 7 21 6 48
-5 50 -21 73 -20 114 5 32 19 34 19 53 2 31 -28 91 -23 126 10 l30 28 27 -25
c33 -31 80 -41 118 -27 23 9 28 16 25 39 -3 24 -6 27 -37 24 -22 -2 -31 0 -26
7 3 6 -1 11 -9 11 -11 0 -15 7 -12 23 2 19 11 23 54 27 56 6 56 6 67 -59 9
-53 23 -71 54 -71 34 0 46 13 56 58 3 17 11 32 17 32 6 0 9 -3 5 -6 -11 -11
42 -71 73 -84 34 -14 100 -6 100 12 0 9 3 9 12 0 7 -7 24 -12 39 -12 33 0 39
17 39 128 0 66 3 82 15 82 12 0 15 -16 15 -86 0 -91 10 -124 38 -124 35 0 42
21 42 128 0 66 4 101 10 97 6 -3 10 -47 10 -96 0 -102 10 -129 46 -129 34 0
44 32 44 145 0 85 2 94 20 100 26 8 26 41 1 55 -25 13 -92 13 -127 0 -17 -7
-31 -7 -38 -1 -17 14 -117 11 -142 -4 -16 -10 -25 -10 -45 1 -31 17 -79 17
-103 -1 -16 -12 -21 -12 -40 0 -11 8 -24 15 -28 15 -14 0 -48 -44 -48 -62 0
-30 -15 -21 -29 17 -12 33 -15 36 -54 35 -23 0 -60 2 -83 6 -36 5 -45 2 -75
-24 l-34 -30 -18 24 c-32 42 -135 40 -151 -3 -3 -8 -10 -12 -15 -9 -5 3 -12
-16 -16 -44 -7 -50 -7 -50 -44 -50 -20 0 -42 -5 -49 -12 -9 -9 -12 -6 -12 13
0 39 23 63 61 64 30 0 34 4 37 29 4 34 -10 46 -57 46 -37 0 -95 -31 -107 -58
-13 -28 -20 -182 -9 -186 6 -3 -3 -5 -18 -5 -16 -1 -26 3 -23 8 4 5 1 11 -5
13 -6 2 -10 39 -10 100 0 75 -3 101 -15 112 -19 20 -24 20 -51 1 -15 -11 -23
-28 -25 -58 l-4 -42 -8 41 c-4 23 -11 46 -15 52 -11 19 -66 26 -78 10z m61
-30 c3 -13 15 -74 28 -135 23 -106 23 -113 7 -113 -13 0 -20 11 -25 35 -6 32
-9 35 -40 35 -32 0 -34 -2 -34 -35 0 -29 -4 -35 -21 -35 -16 0 -20 5 -16 19 2
11 15 71 28 135 22 107 25 116 46 116 15 0 24 -7 27 -22z m108 -103 l-4 -125
46 0 c25 0 46 -4 46 -10 0 -6 -27 -10 -60 -10 l-60 0 0 135 c0 123 2 135 18
135 16 0 18 -10 14 -125z m246 97 c4 -23 3 -23 -22 -7 -52 34 -92 -15 -90
-112 2 -64 24 -103 59 -103 23 0 25 4 25 45 0 38 -3 45 -20 45 -11 0 -20 5
-20 10 0 6 17 10 38 10 l37 0 0 -65 0 -65 -33 -6 c-71 -14 -122 43 -122 134 0
54 27 125 52 136 7 2 31 4 53 3 34 -2 41 -6 43 -25z m157 22 c58 -23 68 -192
14 -250 -29 -30 -60 -31 -96 0 -24 21 -28 32 -31 95 -2 39 -1 82 2 96 13 52
62 78 111 59z m199 -9 c16 -16 36 -76 36 -107 0 -15 -10 -18 -61 -18 l-62 0 6
-40 c3 -23 11 -47 17 -55 15 -18 61 -20 79 -2 10 10 12 7 9 -13 -2 -21 -9 -26
-39 -28 -73 -6 -118 68 -104 174 8 65 36 104 75 104 16 0 35 -7 44 -15z m101
-95 c10 -61 21 -112 25 -115 4 -2 15 47 25 110 17 100 21 115 38 115 15 0 18
-5 13 -22 -3 -13 -16 -74 -28 -135 -22 -108 -24 -113 -48 -113 -24 0 -26 5
-47 113 -13 61 -26 122 -29 135 -5 17 -2 22 13 22 18 0 22 -13 38 -110z m251
85 c9 -14 19 -45 22 -70 l5 -45 -62 0 c-69 0 -74 -9 -47 -75 12 -28 20 -35 43
-35 16 0 35 6 42 13 10 10 12 7 9 -13 -2 -17 -10 -26 -27 -28 -74 -11 -111 37
-111 143 0 93 23 135 75 135 26 0 39 -6 51 -25z m94 16 c0 -5 13 -5 29 2 64
24 81 -11 81 -162 0 -96 -2 -107 -18 -107 -16 0 -18 11 -18 118 0 136 -8 154
-51 121 -28 -20 -28 -21 -26 -129 2 -103 1 -110 -17 -110 -19 0 -20 7 -20 138
0 131 1 138 20 138 11 0 20 -4 20 -9z m270 -6 c0 -10 -10 -15 -30 -15 l-30 0
3 -120 c4 -111 3 -120 -14 -120 -17 0 -19 10 -19 120 l0 120 -25 0 c-16 0 -25
6 -25 15 0 12 14 15 70 15 56 0 70 -3 70 -15z m-330 -177 c0 -31 -3 -33 -36
-35 -21 -1 -43 4 -51 13 -10 9 -11 14 -2 14 9 0 9 3 0 14 -15 18 -1 24 52 25
35 1 37 0 37 -31z"/>
<path d="M707 1264 c-4 -21 -9 -54 -13 -71 -6 -31 -5 -33 21 -33 27 0 28 0 21
50 -4 28 -10 60 -15 72 -7 19 -9 16 -14 -18z"/>
<path d="M1203 1312 c-19 -12 -33 -60 -33 -115 0 -66 18 -102 50 -102 33 0 50
36 50 108 0 85 -29 133 -67 109z m38 -49 c0 -5 3 -21 5 -38 8 -49 -4 -95 -25
-95 -23 0 -35 52 -25 105 4 25 11 35 25 35 11 0 19 -3 20 -7z"/>
<path d="M1386 1298 c-9 -12 -16 -35 -16 -50 0 -26 3 -28 40 -28 38 0 40 2 40
31 0 63 -35 89 -64 47z"/>
<path d="M1732 1308 c-6 -7 -13 -30 -17 -50 l-7 -38 46 0 46 0 -7 33 c-12 62
-36 84 -61 55z"/>
<path d="M488 963 c-27 -31 -32 -79 -10 -101 17 -17 34 -19 205 -17 120 1 191
6 200 13 9 8 17 8 23 2 8 -8 222 -16 294 -11 30 2 125 -11 142 -20 24 -13 72
-11 86 4 10 9 70 12 227 12 142 1 218 5 227 12 10 9 18 8 32 -2 11 -9 26 -11
40 -6 11 5 32 6 46 3 14 -2 135 -5 269 -6 261 -1 271 1 271 48 0 39 -21 56
-72 58 -26 0 -45 5 -42 10 3 4 -2 8 -11 8 -9 0 -13 -5 -10 -10 4 -6 -17 -10
-57 -10 -45 0 -59 3 -48 10 12 8 10 10 -10 10 -108 2 -179 -3 -173 -12 2 -5
-3 -8 -11 -8 -9 0 -16 5 -16 11 0 8 -4 8 -13 0 -10 -8 -16 -8 -24 0 -6 6 -35
13 -65 16 -44 4 -58 1 -77 -16 -13 -11 -28 -18 -32 -15 -16 10 -33 -8 -18 -18
11 -7 11 -11 2 -15 -18 -7 -16 -33 2 -33 8 0 15 -5 15 -11 0 -6 -10 -9 -22 -7
-19 2 -24 10 -26 46 -2 33 0 42 12 42 9 0 16 5 16 11 0 7 -6 8 -17 3 -25 -13
-713 -15 -713 -3 0 6 -8 5 -21 -1 -16 -9 -26 -8 -44 4 -37 24 -130 21 -163 -5
-24 -18 -27 -19 -38 -4 -9 12 -17 13 -40 5 -15 -6 -66 -11 -113 -11 -47 0 -95
0 -105 0 -11 0 -22 5 -26 11 -4 6 -22 13 -41 16 -26 4 -38 1 -51 -13z m72 -18
c0 -11 -7 -14 -25 -9 -15 4 -25 2 -25 -5 0 -6 9 -11 20 -11 11 0 20 -4 20 -10
0 -5 -9 -10 -20 -10 -11 0 -20 -5 -20 -11 0 -6 11 -9 25 -7 13 2 25 -1 27 -7
4 -15 -51 -19 -67 -5 -16 13 -9 70 9 82 20 14 56 9 56 -7z m488 2 c17 -11 16
-87 -2 -87 -9 0 -13 12 -12 38 1 27 -3 37 -14 37 -10 0 -16 -12 -18 -37 -2
-23 -8 -38 -16 -38 -9 0 -13 13 -12 38 1 27 -3 37 -14 37 -10 0 -16 -12 -18
-37 -5 -55 -22 -46 -22 11 l0 48 58 -1 c31 -1 63 -5 70 -9z m940 4 c22 -13 11
-56 -15 -59 -13 -2 -23 -10 -23 -18 0 -8 -7 -14 -15 -14 -11 0 -15 12 -15 50
0 48 1 50 28 50 15 0 33 -4 40 -9z m52 -30 c0 -22 5 -41 13 -44 6 -2 9 -8 5
-12 -4 -4 -14 -5 -23 -2 -17 7 -22 97 -5 97 6 0 10 -18 10 -39z m210 29 c0 -5
-6 -10 -12 -10 -9 0 -8 -4 2 -10 10 -6 11 -10 3 -10 -8 0 -13 -13 -13 -30 0
-16 -4 -30 -10 -30 -5 0 -10 23 -10 50 0 43 3 50 20 50 11 0 20 -4 20 -10z
m-1392 -17 c12 -12 13 -18 4 -21 -14 -4 -16 -32 -2 -32 6 0 10 -4 10 -10 0 -5
-9 -10 -20 -10 -14 0 -20 7 -20 23 0 12 -3 32 -6 45 -8 27 10 29 34 5z m1325
3 c3 -8 3 -24 0 -35 -3 -12 -1 -21 6 -21 6 0 11 -4 11 -10 0 -16 -37 -11 -44
6 -11 29 -7 74 8 74 8 0 16 -6 19 -14z m-1587 -22 l7 -27 14 27 c21 41 33 31
16 -14 -9 -22 -22 -40 -29 -40 -11 0 -34 49 -34 71 0 21 20 7 26 -17z m114 11
c15 -18 5 -35 -23 -36 -17 -1 -15 -3 8 -9 26 -6 28 -8 11 -15 -40 -17 -75 37
-40 62 23 17 29 16 44 -2z m88 2 c14 -9 17 -67 3 -67 -5 0 -11 11 -13 25 -4
35 -22 36 -26 3 -2 -16 -10 -28 -17 -28 -10 0 -13 10 -10 38 2 20 4 37 4 37 5
4 49 -2 59 -8z m352 -27 c0 -34 -2 -38 -27 -38 -34 0 -53 14 -53 39 0 21 24
37 57 37 20 0 23 -5 23 -38z m78 27 c14 -9 17 -67 3 -67 -5 0 -11 11 -13 25
-4 35 -22 36 -26 3 -5 -42 -22 -34 -22 10 0 33 3 38 23 37 12 0 28 -4 35 -8z
m102 -27 c0 -34 -2 -38 -27 -38 -34 0 -53 14 -53 39 0 21 24 37 57 37 20 0 23
-5 23 -38z m90 -6 c0 -46 -22 -70 -54 -58 -23 9 -20 27 3 19 11 -3 22 -1 26 5
4 6 -4 10 -19 10 -14 0 -26 2 -26 4 0 2 -3 11 -6 19 -7 20 20 45 50 45 24 0
26 -4 26 -44z m76 32 c21 -16 13 -31 -21 -39 -18 -4 -18 -5 3 -6 30 -1 28 -21
-3 -21 -35 0 -52 35 -29 61 21 23 25 23 50 5z m137 5 c10 -1 9 -71 -2 -71 -5
0 -11 11 -13 25 -2 14 -7 26 -13 26 -5 0 -11 -12 -13 -26 -2 -14 -7 -25 -12
-25 -5 0 -10 11 -12 25 -4 33 -24 32 -21 -1 1 -15 -4 -24 -13 -24 -10 0 -14
12 -14 38 l0 38 53 -2 c28 -1 55 -2 60 -3z m83 -5 c21 -16 13 -31 -21 -39 -18
-4 -18 -5 3 -6 30 -1 28 -21 -3 -21 -14 0 -29 8 -35 19 -13 25 -13 27 6 45 19
20 25 20 50 2z m88 3 c2 -2 7 -19 11 -36 5 -26 3 -33 -9 -33 -8 0 -16 11 -18
25 -4 33 -24 32 -21 -1 1 -15 -4 -24 -13 -24 -10 0 -14 12 -14 40 0 38 1 39
30 36 17 -2 32 -5 34 -7z m334 -31 c3 -33 1 -36 -25 -36 -34 0 -53 14 -53 39
0 21 23 36 53 34 18 -1 23 -9 25 -37z m176 29 c36 -26 -4 -84 -41 -61 -24 15
-27 38 -8 58 20 19 26 20 49 3z m76 3 c0 -4 -7 -13 -15 -20 -9 -7 -13 -21 -10
-31 4 -13 1 -19 -9 -19 -12 0 -16 10 -16 39 0 34 3 39 25 39 14 0 25 -4 25 -8z
m118 -3 c16 -11 16 -67 -1 -67 -7 0 -13 10 -12 23 0 31 -19 33 -23 2 -2 -14
-7 -25 -12 -25 -5 0 -10 11 -12 25 -4 35 -22 36 -26 3 -5 -42 -22 -34 -22 10
l0 37 48 0 c26 0 53 -4 60 -8z"/>
<path d="M1094 909 c-10 -17 13 -36 27 -22 12 12 4 33 -11 33 -5 0 -12 -5 -16
-11z"/>
<path d="M1280 910 c-12 -7 -12 -12 -2 -22 9 -9 15 -9 24 0 16 16 -2 34 -22
22z"/>
<path d="M1366 912 c-2 -4 -1 -14 4 -22 7 -11 12 -12 21 -3 6 6 8 16 5 22 -8
13 -23 14 -30 3z"/>
<path d="M2084 909 c-8 -14 11 -33 25 -25 11 7 4 36 -9 36 -5 0 -12 -5 -16
-11z"/>
<path d="M2274 909 c-10 -17 13 -36 27 -22 12 12 4 33 -11 33 -5 0 -12 -5 -16
-11z"/>
</g>
</svg>
